<?xml version="1.0" encoding="UTF-8"?>
<svg width="200" height="60" viewBox="0 0 200 60" fill="none" xmlns="http://www.w3.org/2000/svg">
  <!-- Red S symbol -->
  <path d="M15 45C15 48.3137 17.6863 51 21 51H27C30.3137 51 33 48.3137 33 45V39C33 35.6863 30.3137 33 27 33H21C17.6863 33 15 30.3137 15 27V21C15 17.6863 17.6863 15 21 15H27C30.3137 15 33 17.6863 33 21" stroke="#DC2626" stroke-width="6" stroke-linecap="round"/>
  <line x1="9" y1="30" x2="39" y2="30" stroke="#DC2626" stroke-width="6" stroke-linecap="round"/>
  
  <!-- SURUS text -->
  <g fill="#FFFFFF">
    <!-- S -->
    <path d="M65 35.5C65 38.5 67.5 41 70.5 41H73.5C76.5 41 79 38.5 79 35.5V33.5C79 30.5 76.5 28 73.5 28H70.5C67.5 28 65 25.5 65 22.5V20.5C65 17.5 67.5 15 70.5 15H73.5C76.5 15 79 17.5 79 20.5"/>
    
    <!-- U -->
    <path d="M90 15V35C90 38.866 93.134 42 97 42H98C101.866 42 105 38.866 105 35V15"/>
    
    <!-- R -->
    <path d="M116 15V41M116 15H123C126.866 15 130 18.134 130 22V24C130 27.866 126.866 31 123 31H116M130 41L123 31"/>
    
    <!-- U -->
    <path d="M141 15V35C141 38.866 144.134 42 148 42H149C152.866 42 156 38.866 156 35V15"/>
    
    <!-- S -->
    <path d="M167 35.5C167 38.5 169.5 41 172.5 41H175.5C178.5 41 181 38.5 181 35.5V33.5C181 30.5 178.5 28 175.5 28H172.5C169.5 28 167 25.5 167 22.5V20.5C167 17.5 169.5 15 172.5 15H175.5C178.5 15 181 17.5 181 20.5"/>
  </g>
</svg>
